<svg width="20" height="25" viewBox="0 0 20 25" fill="none" xmlns="http://www.w3.org/2000/svg">
<path d="M7.69252 1.50909H11.9021V2.21214H13.4223V1.41068C13.4225 0.632858 12.7853 0 12.002 0H7.59259C6.80933 0 6.17211 0.632858 6.17211 1.41068V2.21214H7.69252V1.50909Z" fill="#BD1309"/>
<path d="M16.9331 8.19092H2.66145C2.2704 8.19092 1.96255 8.52203 1.99407 8.90903L3.18722 23.5529C3.25371 24.3704 3.9407 25 4.76604 25H14.8284C15.6537 25 16.3407 24.3704 16.4072 23.5527L17.6003 8.90903C17.632 8.52203 17.3242 8.19092 16.9331 8.19092ZM6.11715 23.4381C6.1012 23.439 6.08525 23.4396 6.06949 23.4396C5.67095 23.4396 5.33639 23.1316 5.3116 22.7314L4.56389 10.7096C4.53814 10.2936 4.85694 9.93557 5.27586 9.91001C5.69343 9.88483 6.05566 10.2005 6.08141 10.6167L6.82893 22.6385C6.85487 23.0545 6.53607 23.4123 6.11715 23.4381ZM10.566 22.6851C10.566 23.1016 10.2256 23.4394 9.80575 23.4394C9.38587 23.4394 9.04555 23.1016 9.04555 22.6851V10.663C9.04555 10.2463 9.38587 9.90849 9.80575 9.90849C10.2254 9.90849 10.566 10.2463 10.566 10.663V22.6851ZM15.0307 10.7075L14.3168 22.7293C14.2932 23.1302 13.958 23.4394 13.5587 23.4394C13.5437 23.4394 13.5286 23.439 13.5134 23.4383C13.0943 23.4137 12.7745 23.0566 12.7993 22.6406L13.513 10.6186C13.5376 10.2026 13.8962 9.88522 14.3164 9.90982C14.7355 9.93423 15.0553 10.2915 15.0307 10.7075Z" fill="#BD1309"/>
<path d="M19.562 5.86243L19.0627 4.37698C18.9311 3.9854 18.5617 3.72124 18.1457 3.72124H1.4487C1.03286 3.72124 0.663327 3.9854 0.531886 4.37698L0.0326421 5.86243C-0.0636324 6.14891 0.061659 6.44112 0.295523 6.58684C0.390837 6.64616 0.503638 6.68182 0.627584 6.68182H18.967C19.091 6.68182 19.204 6.64616 19.2991 6.58665C19.5329 6.44093 19.6582 6.14872 19.562 5.86243Z" fill="#BD1309"/>
</svg>
