<svg width="25" height="25" viewBox="0 0 25 25" fill="none" xmlns="http://www.w3.org/2000/svg">
<path d="M19.7916 12.4996C19.2156 12.4996 18.75 12.9663 18.75 13.5412V21.8749C18.75 22.4488 18.2833 22.9165 17.7084 22.9165H3.125C2.54993 22.9165 2.0834 22.4488 2.0834 21.8749V7.29103C2.0834 6.71709 2.54993 6.24939 3.125 6.24939H11.4584C12.0344 6.24939 12.5 5.78265 12.5 5.20776C12.5 4.63267 12.0344 4.16593 11.4584 4.16593H3.125C1.40209 4.16593 0 5.56807 0 7.29103V21.8749C0 23.5979 1.40209 25 3.125 25H17.7084C19.4313 25 20.8334 23.5979 20.8334 21.8749V13.5412C20.8334 12.9652 20.3676 12.4996 19.7916 12.4996Z" fill="#BD1309"/>
<path d="M9.76658 11.5507C9.69372 11.6235 9.6447 11.7162 9.62391 11.8162L8.88748 15.4998C8.85315 15.6705 8.90732 15.8465 9.03015 15.9705C9.12914 16.0695 9.26247 16.1225 9.39903 16.1225C9.43222 16.1225 9.46674 16.1195 9.50108 16.1122L13.1834 15.3758C13.2854 15.3548 13.3781 15.306 13.4501 15.2329L21.6917 6.99099L18.0094 3.30874L9.76658 11.5507Z" fill="#BD1309"/>
<path d="M24.2374 0.761772C23.222 -0.253924 21.5698 -0.253924 20.5551 0.761772L19.1135 2.20339L22.7959 5.88584L24.2374 4.44403C24.7292 3.95344 25 3.2992 25 2.60338C25 1.90755 24.7292 1.25331 24.2374 0.761772Z" fill="#BD1309"/>
</svg>
